# xmcd
#
# Track frame offsets: 
#        183
#        21340
#        35943
#        59988
#        79375
#        100573
#        124980
#        146963
#        176175
#        193880
#
# Disc length: 2825 seconds
#
# Revision: 1
# Processed by: cddbd v1.5.2PL0 Copyright (c) Steve Scherf et al.
# Submitted via: ExactAudioCopyFreeDBPlugin 1.0
#
DISCID=a40b070a
DTITLE=Canned Heat - Burnin'
DYEAR=1991
DGENRE=Blues
TTITLE0=Let's Work Together
TTITLE1=Gamblin' Woman
TTITLE2=Hucklebuck
TTITLE3=Sunnyland
TTITLE4=Rollin' And Tumblin'
TTITLE5=Nitwit
TTITLE6=Gunstreet Girl
TTITLE7=One Way Out
TTITLE8=J.J. Jump
TTITLE9=Mercury Blues
EXTD=SPV 084-88572
EXTT0=
EXTT1=
EXTT2=
EXTT3=
EXTT4=
EXTT5=
EXTT6=
EXTT7=
EXTT8=
EXTT9=
PLAYORDER=
